<svg width="53" height="48" viewBox="0 0 53 48" fill="none" xmlns="http://www.w3.org/2000/svg">
<rect opacity="0.1" width="52.4488" height="48" rx="12" fill="#5265FF"/>
<path opacity="0.4" fill-rule="evenodd" clip-rule="evenodd" d="M22.0544 15.3519H30.4444V13.5642H22.0544V15.3519ZM20.1459 13.6376V13.6465C19.4909 13.701 18.843 13.82 18.2127 13.9991V13.9925C18.1939 13.9997 18.1763 14.0052 18.1594 14.0105C18.1371 14.0175 18.1161 14.0241 18.0955 14.0336C18.0451 14.0447 17.9959 14.0614 17.9491 14.0826C17.8108 14.1237 17.6726 14.1727 17.5425 14.2227C17.508 14.235 17.4734 14.2492 17.4388 14.2633C17.4043 14.2775 17.3697 14.2917 17.3351 14.304C17.2877 14.3245 17.2382 14.3471 17.1887 14.3696C17.1392 14.3921 17.0897 14.4146 17.0422 14.4352L16.8079 14.5587C16.7646 14.5789 16.7245 14.6027 16.6836 14.6269L16.6836 14.6269C16.6592 14.6413 16.6345 14.6558 16.6087 14.67C16.2561 14.878 15.9292 15.1216 15.6339 15.3986L15.6164 15.4153C15.5776 15.4567 15.539 15.4968 15.5009 15.5364L15.5009 15.5364C15.4365 15.6033 15.3737 15.6686 15.3141 15.7357L15.2965 15.7513C14.3381 16.9617 13.8578 18.4535 13.9409 19.9654V20.4449H15.8331V19.961C15.8331 17.8539 16.5666 16.5423 18.1986 15.8703C18.8219 15.6289 19.4804 15.4799 20.1505 15.4253H20.1681V13.6454L20.1459 13.6376ZM37.1484 15.7291L37.1567 15.7446C38.1139 16.9561 38.5919 18.4491 38.5075 19.961V20.4449H36.6165V19.9487C36.6564 19.0565 36.4607 18.1687 36.046 17.3666C35.6476 16.6802 35.0102 16.1474 34.2405 15.8581C33.6277 15.6167 32.9786 15.4665 32.3167 15.4131V13.642C32.9716 13.6976 33.6195 13.8156 34.251 13.9947V13.9858C34.2865 14.0005 34.3136 14.0093 34.3601 14.0243L34.3682 14.0269C34.3897 14.0339 34.4099 14.0409 34.4298 14.0478C34.4574 14.0574 34.4847 14.0668 34.5146 14.0759C34.6442 14.1148 34.7653 14.1606 34.89 14.2078L34.9118 14.2161C34.9694 14.2346 35.0235 14.2575 35.0724 14.2782C35.0882 14.2848 35.1034 14.2913 35.118 14.2973C35.2211 14.3384 35.3266 14.3874 35.4109 14.4286C35.4672 14.4553 35.522 14.4839 35.5734 14.5107C35.6012 14.5252 35.628 14.5392 35.6535 14.552C35.6954 14.5733 35.7319 14.596 35.767 14.6178C35.7927 14.6337 35.8175 14.6492 35.8433 14.6633C36.1971 14.8724 36.5275 15.1172 36.8263 15.392L36.8368 15.4087C36.9469 15.5099 37.0512 15.6167 37.1484 15.7291Z" fill="#5265FF"/>
<path d="M32.3708 12.3962V16.3356C32.3708 16.8319 31.9307 17.234 31.3874 17.234C30.844 17.234 30.404 16.8319 30.404 16.3356V12.4052C30.3991 11.9088 30.8367 11.5034 31.38 11.5C31.9233 11.4967 32.3671 11.8953 32.3708 12.3917V12.3962Z" fill="#5265FF"/>
<path d="M22.0449 12.4104V16.3401C22.0449 16.8386 21.6043 17.2428 21.0609 17.2428C20.5174 17.2428 20.0781 16.8386 20.0781 16.3401V12.4104C20.0781 11.9119 20.5174 11.5089 21.0609 11.5089C21.6043 11.5089 22.0449 11.9119 22.0449 12.4104Z" fill="#5265FF"/>
<path fill-rule="evenodd" clip-rule="evenodd" d="M13.9317 30.1377V20.4449H38.5171V30.1377C38.5171 34.3645 35.9378 36.5 30.8261 36.5H21.611C16.511 36.5 13.9317 34.3645 13.9317 30.1377ZM19.4772 25.8335C19.4772 26.4199 19.9813 26.8957 20.6027 26.8957C21.2358 26.8957 21.74 26.4088 21.7282 25.8224C21.7282 25.236 21.2241 24.7602 20.6144 24.7602H20.6027C19.9813 24.7602 19.4772 25.247 19.4772 25.8335ZM25.093 25.8335C25.093 26.4199 25.6089 26.8957 26.2303 26.8957C26.8516 26.8957 27.3558 26.4199 27.3558 25.8224C27.3558 25.247 26.8516 24.7712 26.2303 24.7602H26.2185C25.5972 24.7712 25.093 25.247 25.093 25.8335ZM31.8461 26.8957C31.2247 26.8957 30.7206 26.4199 30.7206 25.8335C30.7206 25.247 31.213 24.7713 31.8461 24.7713C32.4675 24.7713 32.9716 25.247 32.9716 25.8335C32.9716 26.4199 32.4675 26.8957 31.8461 26.8957ZM31.8461 31.4323C31.2247 31.4323 30.7206 30.9565 30.7089 30.3701C30.7089 29.7836 31.213 29.3078 31.8344 29.3078H31.8461C32.4675 29.3078 32.9716 29.7836 32.9716 30.3701C32.9716 30.9565 32.4675 31.4323 31.8461 31.4323ZM26.2303 31.4323C25.6089 31.4323 25.093 30.9565 25.093 30.3701C25.093 29.7836 25.5972 29.3078 26.2185 29.2968H26.2303C26.8516 29.3078 27.344 29.7836 27.3558 30.359C27.3558 30.9565 26.8516 31.4323 26.2303 31.4323ZM20.6027 31.4323C19.9813 31.4323 19.4772 30.9565 19.4772 30.3701C19.4655 29.7836 19.9696 29.2968 20.6027 29.2968C21.2241 29.2968 21.7282 29.7726 21.7282 30.359C21.7282 30.9454 21.2241 31.4323 20.6027 31.4323Z" fill="#5265FF"/>
</svg>
